<?xml version="1.0" standalone="no"?>
<!DOCTYPE svg PUBLIC "-//W3C//DTD SVG 20010904//EN"
 "http://www.w3.org/TR/2001/REC-SVG-20010904/DTD/svg10.dtd">
<svg version="1.0" xmlns="http://www.w3.org/2000/svg"
 width="233.000000pt" height="256.000000pt" viewBox="0 0 233.000000 256.000000"
 preserveAspectRatio="xMidYMid meet">
<metadata>
Created by potrace 1.10, written by Peter Selinger 2001-2011
</metadata>
<g transform="translate(0.000000,256.000000) scale(0.100000,-0.100000)"
fill="#000000" stroke="none">
<path d="M863 2267 c5 -40 4 -57 -6 -60 -6 -3 -2 -6 10 -6 12 -1 24 -7 26 -13
3 -7 6 -1 6 15 1 15 -4 27 -9 27 -6 0 -2 10 10 22 11 12 20 29 19 37 0 14 -1
14 -6 1 -4 -8 -12 -21 -20 -28 -14 -14 -17 -7 -14 30 1 9 -3 20 -10 24 -9 5
-11 -6 -6 -49z"/>
<path d="M1100 2308 c-93 -9 -118 -16 -92 -25 6 -3 12 -9 12 -15 0 -6 -11 -3
-25 6 -24 16 -26 15 -57 -14 -23 -22 -28 -34 -21 -41 13 -13 83 6 83 22 0 6 4
8 9 4 5 -3 15 1 23 8 7 8 19 12 27 9 7 -2 24 2 38 9 20 11 26 11 32 0 7 -10
12 -10 29 0 16 10 24 11 33 2 7 -7 23 -8 47 -2 26 6 41 4 52 -6 8 -7 31 -16
50 -18 19 -3 37 -6 40 -6 3 -1 -2 -6 -10 -11 -11 -7 -3 -10 30 -11 25 0 39 -3
32 -6 -10 -4 -9 -9 5 -20 11 -9 12 -12 3 -8 -8 3 -7 0 3 -7 46 -32 97 -82 97
-95 0 -7 7 -16 15 -19 8 -4 15 -14 15 -25 0 -10 7 -22 17 -27 12 -7 14 -17 10
-41 -4 -18 -2 -31 3 -31 14 0 12 -34 -2 -49 -11 -10 -10 -11 5 -6 9 4 17 17
17 28 0 13 4 17 9 12 6 -6 7 -29 4 -53 -5 -36 -8 -40 -21 -30 -13 11 -12 8 1
-19 21 -39 21 -44 2 -37 -11 5 -13 2 -9 -10 3 -8 -1 -30 -10 -47 -9 -18 -16
-37 -16 -42 0 -6 -8 -19 -17 -29 -17 -19 -17 -21 0 -50 20 -35 22 -61 3 -35
-19 24 -29 6 -16 -28 11 -30 6 -116 -10 -145 -5 -10 -7 -32 -4 -48 6 -28 8
-29 36 -21 43 12 50 23 9 14 -31 -7 -33 -5 -26 11 4 11 10 31 13 46 2 17 9 25
16 21 8 -5 8 -3 0 8 -16 23 -16 72 0 120 9 24 16 52 16 63 0 10 16 59 36 109
33 81 36 97 31 153 -3 34 -15 82 -26 106 -11 23 -23 54 -27 68 -10 37 -147
181 -196 206 -37 19 -187 64 -208 62 -8 0 -58 -5 -110 -10z"/>
<path d="M810 2292 c0 -7 -16 -26 -35 -43 -23 -21 -36 -42 -40 -67 -12 -71
-16 -83 -35 -102 -11 -11 -19 -23 -18 -27 5 -22 -16 -75 -34 -84 -16 -9 -19
-18 -15 -47 13 -89 25 -132 46 -167 25 -42 52 -156 44 -186 -4 -12 -14 -19
-31 -19 l-25 0 7 -91 c4 -51 14 -106 22 -123 35 -75 54 -96 83 -96 12 0 12 3
3 12 -7 7 -12 20 -12 29 0 13 -6 16 -22 11 -17 -4 -20 -2 -14 13 4 11 0 25 -9
35 -16 18 -37 118 -28 133 3 4 0 14 -7 22 -8 10 -6 17 12 29 27 19 24 26 33
-96 5 -62 11 -88 20 -88 12 0 31 -45 26 -63 -1 -5 3 -6 9 -2 15 9 8 59 -9 66
-8 3 -15 14 -17 25 -1 10 -7 46 -14 78 -12 61 -6 146 10 146 5 0 6 8 3 17 -5
12 -2 15 10 10 11 -4 17 -1 17 8 0 28 44 39 168 42 72 2 121 -1 118 -6 -3 -5
3 -7 14 -4 17 4 20 1 18 -21 -1 -14 -5 -26 -9 -26 -3 0 -6 -6 -6 -12 -1 -22
-41 -105 -54 -114 -19 -11 -182 -8 -206 5 -15 7 -25 27 -32 63 l-10 53 3 -53
c5 -81 16 -87 145 -87 l109 0 -14 -27 c-8 -15 -14 -34 -14 -43 0 -21 38 -57
52 -49 7 4 2 12 -13 21 -23 14 -23 14 11 7 45 -10 131 -7 143 5 15 15 -34 24
-59 10 -20 -10 -29 -10 -49 1 -19 10 -30 11 -50 2 -21 -10 -25 -9 -25 6 0 9
11 30 25 46 14 16 25 35 25 43 0 8 10 43 22 79 20 57 26 64 49 64 23 0 27 -5
33 -41 4 -22 16 -59 27 -80 11 -22 17 -44 14 -49 -3 -6 2 -23 11 -39 16 -27
16 -31 1 -45 -8 -9 -20 -16 -26 -16 -5 0 -13 -5 -17 -12 -4 -7 -3 -8 4 -4 7 4
12 3 12 -2 0 -6 7 -13 16 -16 9 -3 12 -2 9 5 -4 6 1 19 11 30 15 17 16 26 7
60 -10 39 -10 40 11 35 45 -14 162 -18 189 -7 30 12 57 62 57 106 0 14 7 28
15 31 8 4 15 15 15 25 0 14 -16 23 -70 40 -72 21 -142 30 -134 17 3 -5 12 -8
20 -8 8 0 14 -3 14 -7 0 -5 19 -8 43 -8 58 -1 110 -23 101 -44 -3 -9 -11 -34
-16 -56 -5 -21 -14 -45 -20 -52 -6 -7 -7 -13 -2 -13 5 0 2 -5 -6 -10 -20 -13
-162 -13 -196 0 -54 21 -86 99 -60 151 8 16 10 27 5 23 -6 -3 -15 -16 -20 -28
-8 -18 -8 -17 -6 9 2 29 4 30 54 30 29 1 55 4 59 8 4 4 -14 7 -39 7 -36 0 -45
3 -41 15 13 32 106 45 195 26 3 0 19 -13 35 -28 26 -24 29 -25 33 -8 2 12 -10
31 -34 52 -36 31 -63 44 -50 23 3 -5 2 -10 -4 -10 -5 0 -13 5 -16 10 -11 18
-98 11 -132 -10 -18 -11 -34 -24 -34 -30 -3 -20 -4 -25 -12 -37 -5 -7 -17 -13
-28 -13 -10 0 -19 -4 -19 -10 0 -5 -5 -10 -11 -10 -5 0 -7 5 -4 10 3 6 -3 10
-15 10 -13 0 -24 10 -31 28 -11 29 -45 64 -69 71 -45 13 -91 12 -112 -3 -12
-9 -29 -16 -38 -16 -13 0 -13 1 0 10 8 5 10 10 4 10 -7 0 -27 -14 -44 -30 -23
-21 -30 -34 -23 -41 7 -7 17 -7 32 0 11 6 30 16 41 21 37 19 103 22 144 7 67
-23 52 -33 -51 -32 -122 0 -223 -20 -223 -45 0 -10 -7 -23 -15 -30 -12 -10
-15 -10 -15 3 0 9 5 19 10 22 13 8 13 95 0 115 -5 8 -10 11 -10 5 0 -5 -10 10
-21 33 -11 24 -18 50 -15 58 3 8 1 14 -5 14 -6 0 -8 7 -5 16 4 12 2 15 -9 10
-8 -3 -15 -1 -15 4 0 6 5 10 11 10 5 0 8 4 5 9 -3 5 1 14 10 21 12 11 12 15 2
21 -10 7 -9 9 4 9 9 0 17 8 17 18 -1 36 11 87 21 90 5 2 10 14 10 28 0 16 4
22 14 18 11 -4 13 0 9 16 -3 12 1 28 11 39 9 10 13 20 10 24 -11 10 17 67 32
67 16 0 17 9 4 30 -7 10 -10 11 -10 2z"/>
<path d="M832 2232 c-12 -11 -22 -28 -22 -38 1 -24 45 -57 68 -51 13 4 11 5
-5 6 -36 2 -50 53 -20 72 5 4 8 12 6 18 -3 8 -12 6 -27 -7z"/>
<path d="M1080 2188 c0 -6 -10 -23 -22 -36 l-23 -24 32 18 c34 20 51 54 27 54
-8 0 -14 -5 -14 -12z"/>
<path d="M686 2138 c-17 -24 -21 -48 -8 -48 8 0 34 61 28 67 -2 3 -11 -6 -20
-19z"/>
<path d="M1285 2133 c-20 -5 -35 -20 -35 -36 0 -5 7 -1 16 8 9 9 22 14 29 11
8 -3 16 2 19 10 6 15 4 15 -29 7z"/>
<path d="M983 2100 c3 -13 1 -19 -7 -18 -6 2 -11 -1 -11 -7 0 -5 5 -8 10 -6 6
2 17 4 26 5 15 0 15 3 2 23 -19 28 -27 29 -20 3z"/>
<path d="M1043 2113 c-7 -2 -13 -12 -13 -21 0 -13 2 -14 9 -3 7 11 10 11 17 0
4 -8 3 -14 -5 -17 -7 -2 -1 -10 15 -18 15 -8 34 -12 42 -9 8 3 29 -11 51 -36
34 -39 38 -40 75 -34 30 6 35 10 22 17 -9 5 -22 6 -29 1 -23 -14 -37 -11 -52
10 -18 26 -20 64 -3 69 6 2 8 10 4 16 -10 16 -29 15 -23 -1 3 -8 1 -20 -4 -28
-7 -11 -9 -11 -9 4 0 16 -2 16 -23 2 -22 -14 -37 -12 -37 6 0 5 6 6 14 3 8 -3
17 -1 21 5 4 7 -4 11 -20 11 -15 0 -24 4 -20 10 4 6 -1 7 -11 3 -12 -4 -15 -3
-10 5 8 13 7 13 -11 5z"/>
<path d="M1262 2077 c-8 -9 -8 -17 0 -27 8 -13 9 -13 5 1 -3 9 1 16 8 16 7 0
12 -7 11 -16 -1 -9 8 -16 19 -17 12 -1 31 -6 43 -13 18 -9 22 -9 20 1 -2 6 2
12 9 13 21 0 27 15 5 15 -11 0 -24 -5 -27 -10 -4 -6 -22 2 -45 20 -30 23 -40
27 -48 17z"/>
<path d="M927 2073 c-8 -14 5 -73 14 -67 5 3 6 -1 4 -8 -7 -17 21 -56 31 -45
4 4 2 13 -4 19 -21 21 -13 32 10 12 14 -12 18 -13 10 -3 -6 9 -9 19 -5 22 3 4
1 7 -6 7 -18 0 -42 27 -44 50 -1 22 -3 24 -10 13z"/>
<path d="M1180 2039 c0 -5 5 -7 10 -4 6 3 10 -1 10 -9 0 -24 21 -30 38 -10 16
17 16 17 -1 4 -16 -12 -19 -11 -24 8 -5 22 -33 31 -33 11z"/>
<path d="M810 2015 c0 -9 7 -18 15 -21 9 -4 22 -18 30 -33 9 -16 14 -20 15
-10 0 8 -9 25 -20 37 -11 12 -20 26 -20 32 0 5 -4 10 -10 10 -5 0 -10 -7 -10
-15z"/>
<path d="M786 1972 c-6 -17 -13 -22 -28 -19 -15 4 -18 2 -12 -11 4 -9 7 -27 7
-40 -1 -23 0 -23 17 -5 9 10 16 21 13 25 -2 4 1 17 7 28 6 12 9 26 7 33 -2 7
-7 1 -11 -11z"/>
<path d="M1442 1925 c-11 -13 -9 -17 13 -25 15 -6 31 -10 36 -10 5 0 9 -6 9
-14 0 -16 37 -46 56 -46 6 0 14 11 16 25 3 14 1 25 -3 25 -5 0 -9 -4 -9 -10 0
-5 -5 -10 -11 -10 -13 0 -49 38 -49 53 0 5 -7 7 -15 3 -9 -3 -15 0 -15 9 0 19
-11 19 -28 0z"/>
<path d="M1544 1744 c3 -9 6 -30 6 -47 0 -23 3 -28 11 -20 14 14 3 83 -13 83
-5 0 -7 -7 -4 -16z"/>
<path d="M915 1651 c3 -5 1 -12 -5 -16 -5 -3 -10 -1 -10 4 0 6 -5 11 -11 11
-5 0 -8 -4 -5 -9 3 -4 -3 -16 -14 -26 -20 -18 -20 -18 2 -37 12 -10 27 -17 34
-14 7 3 14 1 16 -3 2 -5 14 -12 27 -16 16 -5 21 -4 17 4 -4 6 -1 11 6 12 16 1
-18 16 -54 23 -35 8 -35 19 -3 36 29 15 32 25 9 34 -8 3 -12 2 -9 -3z"/>
<path d="M945 1629 c-6 -19 6 -39 25 -39 16 0 31 20 28 36 -5 28 -45 30 -53 3z"/>
<path d="M1298 1608 c16 -33 51 -38 59 -8 7 25 14 25 35 0 17 -19 16 -20 -17
-36 -26 -12 -39 -14 -48 -5 -8 6 -17 8 -20 4 -4 -3 -7 -1 -7 5 0 7 -4 12 -9
12 -5 0 -7 -9 -4 -20 3 -11 8 -18 12 -16 3 2 17 -2 31 -9 20 -11 28 -10 47 2
12 8 27 12 33 8 5 -3 10 0 10 9 0 8 6 16 13 19 9 3 7 9 -5 24 -10 11 -18 24
-18 29 0 5 -28 9 -63 9 l-63 0 14 -27z"/>
<path d="M1240 1547 c0 -14 19 -37 31 -37 3 0 4 11 1 25 -4 25 -32 36 -32 12z"/>
<path d="M1600 1530 c-11 -7 -12 -10 -2 -10 9 0 11 -7 7 -20 -4 -11 -2 -20 4
-20 6 0 11 4 11 10 0 5 7 7 15 3 17 -6 14 -29 -2 -26 -6 1 -8 -20 -5 -51 5
-57 -9 -96 -34 -96 -10 0 -14 -8 -12 -22 2 -16 -1 -22 -12 -20 -8 2 -12 0 -8
-4 9 -8 -9 -34 -23 -34 -5 0 -7 11 -3 24 8 33 -5 74 -17 55 -5 -8 -9 -18 -9
-24 0 -5 5 -3 10 5 8 12 10 11 10 -7 0 -17 -4 -21 -17 -16 -12 5 -15 2 -11 -9
9 -22 -12 -99 -24 -92 -6 4 -8 -3 -4 -17 7 -24 7 -24 -9 -4 -16 19 -17 19 -15
-10 3 -46 1 -57 -10 -50 -6 3 -7 -1 -4 -9 4 -11 0 -16 -10 -16 -9 0 -16 -6
-16 -13 0 -15 -31 -43 -58 -51 -15 -5 -22 -2 -26 11 -2 10 -4 5 -3 -12 1 -19
-3 -29 -11 -27 -6 1 -12 -3 -12 -9 0 -5 -5 -7 -12 -3 -7 5 -8 3 -3 -6 6 -10 0
-12 -23 -8 -21 3 -33 0 -37 -10 -7 -20 -8 -20 24 -17 31 2 87 37 147 92 57 52
60 50 61 -48 1 -61 -2 -87 -9 -83 -7 4 -8 2 -4 -5 4 -6 12 -9 17 -6 5 4 9 -3
9 -14 0 -11 4 -22 8 -25 14 -8 13 -189 -1 -198 -8 -5 -6 -8 6 -8 19 0 19 1 18
120 0 41 2 69 5 62 3 -6 10 -10 15 -7 13 8 20 -34 15 -85 -6 -57 10 -32 19 32
7 48 -4 70 -50 95 -14 8 -18 31 -22 132 -4 82 -2 129 5 144 7 12 17 40 24 62
9 28 20 41 37 45 14 3 40 28 63 60 35 50 39 63 45 139 5 75 4 85 -12 97 -22
16 -25 17 -45 4z"/>
<path d="M990 1309 c0 -6 -6 -9 -12 -6 -19 7 -48 -11 -48 -30 0 -15 2 -15 18
-1 9 9 27 19 40 22 22 7 31 26 12 26 -5 0 -10 -5 -10 -11z"/>
<path d="M1174 1273 c4 -5 12 -9 17 -9 5 -1 14 -2 19 -3 6 0 10 -5 10 -10 0
-12 -163 -2 -171 11 -4 7 -9 6 -14 -2 -5 -8 -19 -10 -41 -5 -36 6 -49 -10 -16
-22 9 -3 24 -12 32 -18 21 -18 60 -28 60 -17 0 6 -11 13 -25 16 -28 7 -33 21
-10 30 8 3 15 1 15 -4 0 -6 47 -10 113 -10 103 -1 110 -2 82 -15 -23 -10 -25
-13 -10 -14 28 0 91 32 85 44 -3 6 -16 9 -29 7 -13 -2 -41 4 -62 12 -42 17
-67 21 -55 9z"/>
<path d="M1566 1209 c-16 -16 -24 -29 -17 -29 14 0 51 36 51 50 0 13 -1 13
-34 -21z"/>
<path d="M788 1225 c-8 -8 12 -67 40 -115 16 -29 20 -55 21 -151 2 -112 1
-116 -22 -132 -13 -8 -37 -17 -53 -19 -21 -2 -30 -9 -32 -25 -4 -24 36 -123
49 -123 5 0 9 -5 9 -11 0 -26 129 -121 208 -152 49 -20 62 -21 62 -7 0 6 -6
10 -12 8 -22 -4 -124 48 -179 92 -56 44 -99 98 -99 124 0 9 -4 16 -10 16 -5 0
-10 12 -10 26 0 14 4 23 9 19 5 -3 13 -1 16 5 4 6 15 8 26 5 14 -5 19 -2 19
12 0 15 2 16 10 3 8 -12 10 -12 10 5 0 11 7 28 14 38 8 10 12 26 9 36 -3 10
-1 21 4 24 5 3 8 38 6 79 -1 65 0 71 13 54 12 -17 14 -17 14 -3 0 9 -9 21 -19
27 -11 5 -23 20 -27 32 -4 13 -12 26 -18 30 -8 5 -7 8 2 8 7 0 10 5 7 10 -4 6
-11 8 -16 5 -12 -8 -11 6 1 25 9 13 11 13 20 0 5 -8 10 -21 10 -29 0 -8 2 -12
5 -9 10 10 -7 58 -21 58 -7 0 -18 8 -23 18 -6 9 -11 11 -11 5 0 -19 -18 -16
-22 3 -2 9 -6 13 -10 9z"/>
<path d="M1112 1146 c-22 -12 -20 -13 27 -13 53 0 67 10 29 21 -30 7 -29 8
-56 -8z"/>
<path d="M1132 1031 c14 -23 33 -23 33 0 0 8 -10 15 -23 17 -21 3 -22 2 -10
-17z"/>
<path d="M933 1005 c9 -8 23 -12 31 -9 9 3 23 1 31 -6 18 -15 20 -3 3 13 -7 7
-28 13 -46 15 -30 2 -32 1 -19 -13z"/>
<path d="M960 982 c0 -19 156 -77 165 -61 4 5 18 6 32 3 19 -5 24 -3 21 7 -3
9 -25 14 -68 15 -36 2 -66 8 -68 13 -2 6 -8 8 -13 5 -6 -3 -21 1 -34 10 -27
18 -35 20 -35 8z"/>
<path d="M1573 765 c0 -27 -8 -68 -17 -89 -23 -56 -14 -55 24 4 25 38 31 58
28 85 -5 45 14 46 80 5 27 -16 55 -30 63 -30 8 0 47 -25 88 -55 41 -30 83 -55
94 -55 13 0 17 -5 13 -16 -3 -9 -2 -12 5 -9 14 9 139 -47 132 -59 -3 -5 -1 -6
4 -3 13 8 133 -54 186 -96 21 -16 41 -26 45 -23 3 4 2 10 -4 14 -6 4 -26 19
-45 34 -19 14 -86 52 -149 83 -233 115 -256 127 -291 155 -20 16 -67 43 -105
61 -38 18 -72 36 -75 41 -3 4 -21 7 -40 6 -34 -3 -35 -3 -36 -53z"/>
<path d="M660 781 c-48 -16 -170 -83 -164 -92 3 -5 17 0 31 11 31 24 109 60
132 60 9 1 27 7 41 15 22 13 22 14 5 14 -11 0 -31 -4 -45 -8z"/>
<path d="M465 681 c-6 -5 -50 -30 -100 -55 -96 -50 -115 -63 -75 -51 14 4 27
12 28 16 2 5 11 9 21 9 9 0 37 13 62 28 24 16 52 31 62 35 9 3 17 11 17 17 0
12 -3 13 -15 1z"/>
<path d="M1498 612 c-10 -2 -18 -8 -18 -13 0 -6 -4 -7 -10 -4 -5 3 -10 -1 -10
-10 0 -10 -5 -13 -12 -9 -7 4 -8 3 -4 -4 4 -7 1 -12 -8 -12 -9 0 -16 -4 -16
-9 0 -5 -19 -17 -42 -26 -24 -10 -38 -19 -32 -22 13 -4 131 60 158 87 22 22
20 28 -6 22z"/>
<path d="M205 550 c-16 -11 -25 -20 -19 -20 13 0 74 29 74 36 0 10 -27 2 -55
-16z"/>
<path d="M117 508 c-26 -17 -46 -33 -43 -35 3 -3 17 4 33 14 15 11 36 23 46
26 9 4 17 11 17 17 0 13 4 14 -53 -22z"/>
</g>
</svg>
